<?xml version="1.0" encoding="UTF-8" standalone="no"?>
<svg
   xmlns:dc="http://purl.org/dc/elements/1.1/"
   xmlns:cc="http://creativecommons.org/ns#"
   xmlns:rdf="http://www.w3.org/1999/02/22-rdf-syntax-ns#"
   xmlns:svg="http://www.w3.org/2000/svg"
   xmlns="http://www.w3.org/2000/svg"
   xmlns:sodipodi="http://sodipodi.sourceforge.net/DTD/sodipodi-0.dtd"
   xmlns:inkscape="http://www.inkscape.org/namespaces/inkscape"
   inkscape:version="1.0 (4035a4fb49, 2020-05-01)"
   sodipodi:docname="nutrition-outline.svg"
   id="svg12"
   version="1.1"
   viewBox="0 0 512 512"
   class="ionicon">
  <metadata
     id="metadata18">
    <rdf:RDF>
      <cc:Work
         rdf:about="">
        <dc:format>image/svg+xml</dc:format>
        <dc:type
           rdf:resource="http://purl.org/dc/dcmitype/StillImage" />
      </cc:Work>
    </rdf:RDF>
  </metadata>
  <defs
     id="defs16" />
  <sodipodi:namedview
     inkscape:current-layer="svg12"
     inkscape:window-maximized="1"
     inkscape:window-y="-8"
     inkscape:window-x="-8"
     inkscape:cy="256"
     inkscape:cx="256"
     inkscape:zoom="1.4355469"
     showgrid="false"
     id="namedview14"
     inkscape:window-height="1017"
     inkscape:window-width="1920"
     inkscape:pageshadow="2"
     inkscape:pageopacity="0"
     guidetolerance="10"
     gridtolerance="10"
     objecttolerance="10"
     borderopacity="1"
     bordercolor="#666666"
     pagecolor="#ffffff" />
  <title
     id="title2">Nutrition</title>
  <path
     style="stroke:#555555;stroke-opacity:1"
     id="path4"
     stroke-width="32"
     stroke-miterlimit="10"
     stroke="currentColor"
     fill="none"
     d="M352 128c-32.26-2.89-64 16-96 16s-63.75-19-96-16c-64 6-96 64-96 160 0 80 64 192 111.2 192s51.94-24 80.8-24 33.59 24 80.8 24S448 368 448 288c0-96-29-154-96-160z" />
  <path
     style="stroke:#555555;stroke-opacity:1;fill:#555555;fill-opacity:1"
     id="path6"
     d="M323.92 83.14c-21 21-45.66 27-58.82 28.79a8 8 0 01-9.1-8.73 97.6 97.6 0 0128.61-59.33c22-22 46-26.9 58.72-27.85a8 8 0 018.67 8.92 98 98 0 01-28.08 58.2z" />
  <ellipse
     style="stroke:#555555;stroke-opacity:1;fill:#555555;fill-opacity:1"
     id="ellipse8"
     ry="48"
     rx="24"
     cy="304"
     cx="216" />
  <ellipse
     style="stroke:#555555;stroke-opacity:1;fill:#555555;fill-opacity:1"
     id="ellipse10"
     ry="48"
     rx="24"
     cy="304"
     cx="296" />
</svg>
