<?xml version="1.0" encoding="UTF-8" standalone="no"?>
<svg
   xmlns:dc="http://purl.org/dc/elements/1.1/"
   xmlns:cc="http://creativecommons.org/ns#"
   xmlns:rdf="http://www.w3.org/1999/02/22-rdf-syntax-ns#"
   xmlns:svg="http://www.w3.org/2000/svg"
   xmlns="http://www.w3.org/2000/svg"
   xmlns:sodipodi="http://sodipodi.sourceforge.net/DTD/sodipodi-0.dtd"
   xmlns:inkscape="http://www.inkscape.org/namespaces/inkscape"
   inkscape:version="1.0 (4035a4fb49, 2020-05-01)"
   sodipodi:docname="skull-outline.svg"
   id="svg12"
   version="1.1"
   viewBox="0 0 512 512"
   class="ionicon">
  <metadata
     id="metadata18">
    <rdf:RDF>
      <cc:Work
         rdf:about="">
        <dc:format>image/svg+xml</dc:format>
        <dc:type
           rdf:resource="http://purl.org/dc/dcmitype/StillImage" />
      </cc:Work>
    </rdf:RDF>
  </metadata>
  <defs
     id="defs16" />
  <sodipodi:namedview
     inkscape:current-layer="svg12"
     inkscape:window-maximized="1"
     inkscape:window-y="-8"
     inkscape:window-x="-8"
     inkscape:cy="256"
     inkscape:cx="256"
     inkscape:zoom="1.4355469"
     showgrid="false"
     id="namedview14"
     inkscape:window-height="1017"
     inkscape:window-width="1920"
     inkscape:pageshadow="2"
     inkscape:pageopacity="0"
     guidetolerance="10"
     gridtolerance="10"
     objecttolerance="10"
     borderopacity="1"
     bordercolor="#666666"
     pagecolor="#ffffff" />
  <title
     id="title2">Skull</title>
  <path
     style="stroke:#555555;stroke-opacity:1"
     id="path4"
     stroke-width="32"
     stroke-miterlimit="10"
     stroke-linecap="round"
     stroke="currentColor"
     fill="none"
     d="M448 225.64v99a64 64 0 01-40.23 59.42l-23.68 9.47A32 32 0 00364.6 417l-10 50.14A16 16 0 01338.88 480H173.12a16 16 0 01-15.69-12.86L147.4 417a32 32 0 00-19.49-23.44l-23.68-9.47A64 64 0 0164 324.67V224c0-105.92 85.77-191.81 191.65-192S448 119.85 448 225.64z" />
  <circle
     style="stroke:#555555;stroke-opacity:1"
     id="circle6"
     stroke-width="32"
     stroke-miterlimit="10"
     stroke-linecap="round"
     stroke="currentColor"
     fill="none"
     r="40"
     cy="280"
     cx="168" />
  <circle
     style="stroke:#555555;stroke-opacity:1"
     id="circle8"
     stroke-width="32"
     stroke-miterlimit="10"
     stroke-linecap="round"
     stroke="currentColor"
     fill="none"
     r="40"
     cy="280"
     cx="344" />
  <path
     style="stroke:#555555;stroke-opacity:1"
     id="path10"
     d="M256 336l-16 48h32l-16-48zM256 448v32M208 448v32M304 448v32"
     stroke-width="32"
     stroke-linejoin="round"
     stroke-linecap="round"
     stroke="currentColor"
     fill="none" />
</svg>
