<?xml version="1.0" encoding="UTF-8" standalone="no"?>
<svg
   xmlns:dc="http://purl.org/dc/elements/1.1/"
   xmlns:cc="http://creativecommons.org/ns#"
   xmlns:rdf="http://www.w3.org/1999/02/22-rdf-syntax-ns#"
   xmlns:svg="http://www.w3.org/2000/svg"
   xmlns="http://www.w3.org/2000/svg"
   xmlns:sodipodi="http://sodipodi.sourceforge.net/DTD/sodipodi-0.dtd"
   xmlns:inkscape="http://www.inkscape.org/namespaces/inkscape"
   inkscape:version="1.0 (4035a4fb49, 2020-05-01)"
   sodipodi:docname="musical-notes-outline.svg"
   id="svg8"
   version="1.1"
   viewBox="0 0 512 512"
   class="ionicon">
  <metadata
     id="metadata14">
    <rdf:RDF>
      <cc:Work
         rdf:about="">
        <dc:format>image/svg+xml</dc:format>
        <dc:type
           rdf:resource="http://purl.org/dc/dcmitype/StillImage" />
      </cc:Work>
    </rdf:RDF>
  </metadata>
  <defs
     id="defs12" />
  <sodipodi:namedview
     inkscape:current-layer="svg8"
     inkscape:window-maximized="1"
     inkscape:window-y="-8"
     inkscape:window-x="-8"
     inkscape:cy="256"
     inkscape:cx="256"
     inkscape:zoom="1.4355469"
     showgrid="false"
     id="namedview10"
     inkscape:window-height="1017"
     inkscape:window-width="1920"
     inkscape:pageshadow="2"
     inkscape:pageopacity="0"
     guidetolerance="10"
     gridtolerance="10"
     objecttolerance="10"
     borderopacity="1"
     bordercolor="#666666"
     pagecolor="#ffffff" />
  <title
     id="title2">Musical Notes</title>
  <path
     style="stroke:#555555;stroke-opacity:1"
     id="path4"
     stroke-width="32"
     stroke-linejoin="round"
     stroke-linecap="round"
     stroke="currentColor"
     fill="none"
     d="M192 218v-6c0-14.84 10-27 24.24-30.59l174.59-46.68A20 20 0 01416 154v22" />
  <path
     style="stroke:#555555;stroke-opacity:1"
     id="path6"
     stroke-width="32"
     stroke-linejoin="round"
     stroke-linecap="round"
     stroke="currentColor"
     fill="none"
     d="M416 295.94v80c0 13.91-8.93 25.59-22 30l-22 8c-25.9 8.72-52-10.42-52-38h0a33.37 33.37 0 0123-32l51-18.15c13.07-4.4 22-15.94 22-29.85V58a10 10 0 00-12.6-9.61L204 102a16.48 16.48 0 00-12 16v226c0 13.91-8.93 25.6-22 30l-52 18c-13.88 4.68-22 17.22-22 32h0c0 27.58 26.52 46.55 52 38l22-8c13.07-4.4 22-16.08 22-30v-80" />
</svg>
